<svg xmlns="http://www.w3.org/2000/svg" width="12" height="12" viewBox="0 0 18 19"><path d="M9 .5a9 9 0 1 0 9 9 9 9 0 0 0-9-9Z" class="icon-shadow" opacity=".3"/><path fill="#ca3431" d="M9 0a9 9 0 1 0 9 9 9 9 0 0 0-9-9Z" class="icon-background"/><g class="icon-component-shadow" opacity=".2"><path d="M14.74 5.45a2.58 2.58 0 0 0-.74-.91A3.76 3.76 0 0 0 12.89 4a4.07 4.07 0 0 0-1.2-.19 3.92 3.92 0 0 0-1.18.19 5.87 5.87 0 0 0-.9.37 3 3 0 0 0-.32.2 3.46 3.46 0 0 1 .42.63 3.29 3.29 0 0 1 .36 1.47.31.31 0 0 0 .19-.06l.11-.08a2.9 2.9 0 0 1 .29-.19 3.89 3.89 0 0 1 .41-.17 1.55 1.55 0 0 1 .48-.07 1.1 1.1 0 0 1 .72.24.72.72 0 0 1 .23.26.8.8 0 0 1 .07.34 1 1 0 0 1-.25.67 7.71 7.71 0 0 1-.65.63 6.2 6.2 0 0 0-.48.43 2.93 2.93 0 0 0-.45.54 2.55 2.55 0 0 0-.33.66 2.62 2.62 0 0 0-.13.83v.3a.24.24 0 0 0 0 .12.35.35 0 0 0 .17.17H12.4a.23.23 0 0 0 .1-.07.21.21 0 0 0 .06-.1.27.27 0 0 0 0-.12v-.2a1 1 0 0 1 .26-.7q.27-.28.66-.63a5.79 5.79 0 0 0 .57-.47 4.51 4.51 0 0 0 .48-.6 2.56 2.56 0 0 0 .36-.72 2.81 2.81 0 0 0 .14-1 2.66 2.66 0 0 0-.29-1.23ZM12.38 12.65h-2a.34.34 0 0 0-.18.29v1.82a.36.36 0 0 0 .08.23.23.23 0 0 0 .1.07h2a.24.24 0 0 0 .12 0 .26.26 0 0 0 .11-.07.36.36 0 0 0 .07-.1.28.28 0 0 0 0-.13V13a.27.27 0 0 0 0-.12.61.61 0 0 0-.07-.1.32.32 0 0 0-.23-.13ZM6.79 12.65h-2a.34.34 0 0 0-.18.29v1.82a.36.36 0 0 0 .08.23.23.23 0 0 0 .1.07h2a.24.24 0 0 0 .12 0A.26.26 0 0 0 7 15a.36.36 0 0 0 .07-.1.28.28 0 0 0 0-.13V13a.27.27 0 0 0 0-.12.61.61 0 0 0-.07-.1.32.32 0 0 0-.21-.13ZM8.39 4.54A3.76 3.76 0 0 0 7.3 4a4.07 4.07 0 0 0-1.2-.19A3.92 3.92 0 0 0 4.92 4a5.87 5.87 0 0 0-.9.37 3.37 3.37 0 0 0-.55.38l-.21.19a.32.32 0 0 0 0 .41l1 1.2a.26.26 0 0 0 .2.12.48.48 0 0 0 .24-.06l.11-.08a2.9 2.9 0 0 1 .29-.19l.4-.17a1.66 1.66 0 0 1 .5-.11 1.1 1.1 0 0 1 .72.24.72.72 0 0 1 .23.26.77.77 0 0 1 .05.34 1 1 0 0 1-.26.67 7.6 7.6 0 0 1-.64.63 6.28 6.28 0 0 0-.49.43 2.93 2.93 0 0 0-.45.54 2.72 2.72 0 0 0-.33.66 2.62 2.62 0 0 0-.13.83V11a.43.43 0 0 0 0 .12.39.39 0 0 0 .08.1.18.18 0 0 0 .1.07.21.21 0 0 0 .12 0H6.84a.23.23 0 0 0 .1-.07.36.36 0 0 0 .07-.1A.5.5 0 0 0 7 11v-.2a1 1 0 0 1 .27-.7A8 8 0 0 1 8 9.47c.18-.15.35-.31.52-.48a7 7 0 0 0 .48-.6 3.23 3.23 0 0 0 .36-.72 3.07 3.07 0 0 0 .13-1A2.66 2.66 0 0 0 9.2 5.4a2.58 2.58 0 0 0-.81-.86Z"/></g><g fill="#fff"><path d="M14.74 5A2.58 2.58 0 0 0 14 4a3.76 3.76 0 0 0-1.09-.56 4.07 4.07 0 0 0-1.2-.19 3.92 3.92 0 0 0-1.18.17 5.87 5.87 0 0 0-.9.37 3 3 0 0 0-.32.2 3.46 3.46 0 0 1 .42.63 3.29 3.29 0 0 1 .36 1.47.31.31 0 0 0 .19-.06l.09-.03a2.9 2.9 0 0 1 .29-.19 3.89 3.89 0 0 1 .41-.17 1.55 1.55 0 0 1 .48-.07 1.1 1.1 0 0 1 .72.24.72.72 0 0 1 .23.26.8.8 0 0 1 .07.34 1 1 0 0 1-.25.67 7.71 7.71 0 0 1-.65.63 6.2 6.2 0 0 0-.48.43 2.93 2.93 0 0 0-.45.54 2.55 2.55 0 0 0-.33.66 2.62 2.62 0 0 0-.13.83v.35a.24.24 0 0 0 0 .12.35.35 0 0 0 .17.17H12.4a.23.23 0 0 0 .1-.07.21.21 0 0 0 .06-.1.27.27 0 0 0 0-.12v-.22a1 1 0 0 1 .26-.7q.27-.28.66-.63a5.79 5.79 0 0 0 .51-.48 4.51 4.51 0 0 0 .48-.6 2.56 2.56 0 0 0 .36-.72 2.81 2.81 0 0 0 .14-1A2.66 2.66 0 0 0 14.74 5ZM12.38 12.15h-2a.34.34 0 0 0-.18.29v1.82a.36.36 0 0 0 .08.23.23.23 0 0 0 .1.07h2a.24.24 0 0 0 .12 0 .26.26 0 0 0 .11-.07.36.36 0 0 0 .07-.1.28.28 0 0 0 0-.13v-1.8a.27.27 0 0 0 0-.12.61.61 0 0 0-.07-.1.32.32 0 0 0-.23-.09ZM6.79 12.15h-2a.34.34 0 0 0-.18.29v1.82a.36.36 0 0 0 .08.23.23.23 0 0 0 .1.07h2a.24.24 0 0 0 .12 0 .26.26 0 0 0 .09-.05.36.36 0 0 0 .07-.1.28.28 0 0 0 0-.13v-1.82a.27.27 0 0 0 0-.12.61.61 0 0 0-.07-.1.32.32 0 0 0-.21-.09ZM8.39 4a3.76 3.76 0 0 0-1.09-.52 4.07 4.07 0 0 0-1.2-.19 3.92 3.92 0 0 0-1.18.17 5.87 5.87 0 0 0-.9.37 3.37 3.37 0 0 0-.55.38l-.21.19a.32.32 0 0 0 0 .41l1 1.2a.26.26 0 0 0 .2.12.48.48 0 0 0 .24-.06L4.78 6a2.9 2.9 0 0 1 .29-.19l.4-.17A1.66 1.66 0 0 1 6 5.56a1.1 1.1 0 0 1 .72.24.72.72 0 0 1 .23.26.77.77 0 0 1 .05.34 1 1 0 0 1-.26.67 7.6 7.6 0 0 1-.64.63 6.28 6.28 0 0 0-.49.43 2.93 2.93 0 0 0-.45.54 2.72 2.72 0 0 0-.33.66 2.62 2.62 0 0 0-.13.83v.35a.43.43 0 0 0 0 .12.39.39 0 0 0 .08.1.18.18 0 0 0 .1.07.21.21 0 0 0 .12 0H6.84a.23.23 0 0 0 .1-.07.36.36 0 0 0 .07-.1.5.5 0 0 0 0-.12v-.21a1 1 0 0 1 .27-.7A8 8 0 0 1 8 9c.18-.15.35-.31.52-.48A7 7 0 0 0 9 7.89a3.23 3.23 0 0 0 .36-.72 3.07 3.07 0 0 0 .13-1A2.66 2.66 0 0 0 9.15 5a2.58 2.58 0 0 0-.76-1Z" class="icon-component"/></g></svg>