<svg xmlns="http://www.w3.org/2000/svg" width="12" height="12" viewBox="0 0 18 19"><path d="M9 .5a9 9 0 1 0 9 9 9 9 0 0 0-9-9Z" class="icon-shadow" opacity=".3"/><path fill="#1bada6" d="M9 0a9 9 0 1 0 9 9 9 9 0 0 0-9-9Z" class="icon-background"/><g class="icon-component-shadow" opacity=".2"><path d="M12.57 14.6a.51.51 0 0 1 0 .13.44.44 0 0 1-.08.11l-.11.08h-2.26l-.12-.08a.41.41 0 0 1 0-.24v-1.9a.32.32 0 0 1 .09-.23.39.39 0 0 1 .1-.08h2.13a.31.31 0 0 1 .24.1.39.39 0 0 1 .08.1.51.51 0 0 1 0 .13Zm-.12-3.93a.17.17 0 0 1 0 .12.41.41 0 0 1-.07.11.4.4 0 0 1-.23.08h-1.8a.31.31 0 0 1-.34-.31L9.86 3.9a.36.36 0 0 1 .14-.24.23.23 0 0 1 .11-.08.27.27 0 0 1 .13 0h2.06a.32.32 0 0 1 .25.1.36.36 0 0 1 .09.24ZM8.07 14.6a.51.51 0 0 1 0 .13.44.44 0 0 1-.08.11l-.11.08H5.62l-.11-.08a.41.41 0 0 1-.08-.24v-1.9a.27.27 0 0 1 0-.13.36.36 0 0 1 .07-.1.39.39 0 0 1 .1-.08h2.13a.31.31 0 0 1 .24.1.39.39 0 0 1 .08.1.51.51 0 0 1 0 .13ZM8 10.67a.17.17 0 0 1 0 .12.41.41 0 0 1-.07.11.4.4 0 0 1-.23.08H5.85a.31.31 0 0 1-.34-.31L5.36 3.9a.36.36 0 0 1 .09-.24.23.23 0 0 1 .11-.08.27.27 0 0 1 .13 0H7.8a.35.35 0 0 1 .25.1.36.36 0 0 1 .09.24Z"/></g><g fill="#fff"><path d="M12.57 14.1a.51.51 0 0 1 0 .13.44.44 0 0 1-.08.11l-.11.08h-2.26l-.12-.08a.41.41 0 0 1 0-.24v-1.9a.32.32 0 0 1 0-.2.39.39 0 0 1 .1-.08h2.13a.31.31 0 0 1 .24.1.39.39 0 0 1 .08.1.51.51 0 0 1 0 .13Zm-.12-3.93a.17.17 0 0 1 0 .12.41.41 0 0 1-.07.11.4.4 0 0 1-.23.08h-1.8a.31.31 0 0 1-.34-.31L9.86 3.4a.36.36 0 0 1 .14-.24.23.23 0 0 1 .11-.08.27.27 0 0 1 .13 0h2.06a.32.32 0 0 1 .25.1.36.36 0 0 1 .09.24ZM8.07 14.1a.51.51 0 0 1 0 .13.44.44 0 0 1-.08.11l-.11.08H5.62l-.11-.08a.41.41 0 0 1-.08-.24v-1.9a.27.27 0 0 1 0-.13.36.36 0 0 1 .07-.1.39.39 0 0 1 .1-.08h2.13A.31.31 0 0 1 8 12a.39.39 0 0 1 .08.1.51.51 0 0 1 0 .13ZM8 10.17a.17.17 0 0 1 0 .12.41.41 0 0 1-.07.11.4.4 0 0 1-.23.08H5.85a.31.31 0 0 1-.34-.31L5.36 3.4a.36.36 0 0 1 .09-.24.23.23 0 0 1 .11-.08.27.27 0 0 1 .13 0H7.8a.35.35 0 0 1 .25.1.36.36 0 0 1 .09.24Z" class="icon-component"/></g></svg>