<svg xmlns="http://www.w3.org/2000/svg" width="12" height="12" viewBox="0 0 18 19"><path d="M9 .5a9 9 0 1 0 9 9 9 9 0 0 0-9-9Z" class="icon-shadow" opacity=".3"/><path fill="#5c8bb0" d="M9 0a9 9 0 1 0 9 9 9 9 0 0 0-9-9Z" class="icon-background"/><path d="M10.32 14.6a.27.27 0 0 1 0 .13.44.44 0 0 1-.08.11l-.11.08H7.87l-.11-.08a.41.41 0 0 1-.08-.24v-1.9a.27.27 0 0 1 0-.13.36.36 0 0 1 .07-.1.39.39 0 0 1 .1-.08h2.13a.31.31 0 0 1 .24.1.39.39 0 0 1 .08.1.51.51 0 0 1 0 .13Zm-.12-3.93a.17.17 0 0 1 0 .12.41.41 0 0 1-.07.11.4.4 0 0 1-.23.08H8.1a.31.31 0 0 1-.34-.31L7.61 3.9a.36.36 0 0 1 .09-.24.23.23 0 0 1 .11-.08.27.27 0 0 1 .13 0h2.11a.32.32 0 0 1 .25.1.36.36 0 0 1 .09.24Z" class="icon-component-shadow" opacity=".2"/><path fill="#fff" d="M10.32 14.1a.27.27 0 0 1 0 .13.44.44 0 0 1-.08.11l-.11.08H7.87l-.11-.08a.41.41 0 0 1-.08-.24v-1.9a.27.27 0 0 1 0-.13.36.36 0 0 1 .07-.1.39.39 0 0 1 .1-.08h2.13a.31.31 0 0 1 .24.1.39.39 0 0 1 .08.1.51.51 0 0 1 0 .13Zm-.12-3.93a.17.17 0 0 1 0 .12.41.41 0 0 1-.07.11.4.4 0 0 1-.23.08H8.1a.31.31 0 0 1-.34-.31L7.61 3.4a.36.36 0 0 1 .09-.24.23.23 0 0 1 .11-.08.27.27 0 0 1 .13 0h2.11a.32.32 0 0 1 .25.1.36.36 0 0 1 .09.24Z" class="icon-component"/></svg>