<svg xmlns="http://www.w3.org/2000/svg" width="12" height="12" viewBox="0 0 18 19"><path d="M9 .5a9 9 0 1 0 9 9 9 9 0 0 0-9-9Z" class="icon-shadow" opacity=".3"/><path fill="#f7c045" d="M9 0a9 9 0 1 0 9 9 9 9 0 0 0-9-9Z" class="icon-background"/><g class="icon-component-shadow" opacity=".2"><path d="M13.66 14.8a.28.28 0 0 1 0 .13.23.23 0 0 1-.08.11.28.28 0 0 1-.11.08h-2.25a.27.27 0 0 1-.1-.08.36.36 0 0 1-.12-.24v-1.9a.59.59 0 0 1 0-.13.36.36 0 0 1 .07-.1l.1-.08h2.13a.33.33 0 0 1 .23.1.39.39 0 0 1 .08.1.28.28 0 0 1 0 .13Zm-.12-3.93a.31.31 0 0 1 0 .13.3.3 0 0 1-.07.1.3.3 0 0 1-.23.08h-1.81a.31.31 0 0 1-.34-.31l-.15-6.77a.5.5 0 0 1 .06-.24l.11-.08H13.35a.35.35 0 0 1 .26.1.41.41 0 0 1 .08.24ZM7.65 14.82a.27.27 0 0 1 0 .12.26.26 0 0 1-.07.11l-.1.07H5.43a.25.25 0 0 1-.12 0 .27.27 0 0 1-.1-.08.31.31 0 0 1-.09-.22V13a.36.36 0 0 1 .09-.23l.1-.07h2.01a.32.32 0 0 1 .23.09.3.3 0 0 1 .07.1.28.28 0 0 1 0 .13Zm2.2-7.17a3.1 3.1 0 0 1-.36.73A5.58 5.58 0 0 1 9 9a4.85 4.85 0 0 1-.52.49 8 8 0 0 0-.65.63 1 1 0 0 0-.27.7V11a.21.21 0 0 1 0 .12.17.17 0 0 1-.06.1.23.23 0 0 1-.1.07H5.53a.21.21 0 0 1-.12 0 .18.18 0 0 1-.1-.07.2.2 0 0 1-.08-.1.37.37 0 0 1 0-.12v-.35a2.68 2.68 0 0 1 .13-.84 2.91 2.91 0 0 1 .33-.66 3.38 3.38 0 0 1 .45-.55c.16-.15.33-.29.49-.42a7.84 7.84 0 0 0 .65-.64 1 1 0 0 0 .25-.67.77.77 0 0 0-.07-.34.67.67 0 0 0-.23-.27A1.16 1.16 0 0 0 6.49 6a1.61 1.61 0 0 0-.49.11 3 3 0 0 0-.41.18 1.75 1.75 0 0 0-.29.18l-.11.09a.5.5 0 0 1-.19.06.31.31 0 0 1-.21-.13l-1-1.21a.3.3 0 0 1 0-.4 1.36 1.36 0 0 1 .21-.2 3.07 3.07 0 0 1 .56-.38 5.49 5.49 0 0 1 .9-.37 3.69 3.69 0 0 1 1.19-.17 3.92 3.92 0 0 1 2.3.75 2.85 2.85 0 0 1 .77.92A2.82 2.82 0 0 1 10 6.71a3 3 0 0 1-.15.94Z"/></g><g fill="#fff"><path d="M13.66 14.3a.28.28 0 0 1 0 .13.23.23 0 0 1-.08.11.28.28 0 0 1-.11.08h-2.25a.27.27 0 0 1-.1-.08.36.36 0 0 1-.12-.24v-1.9a.59.59 0 0 1 0-.13.36.36 0 0 1 .07-.1l.1-.08h2.13a.33.33 0 0 1 .23.1.39.39 0 0 1 .08.1.28.28 0 0 1 0 .13Zm-.12-3.93a.31.31 0 0 1 0 .13.3.3 0 0 1-.07.1.3.3 0 0 1-.23.08h-1.81a.31.31 0 0 1-.34-.31l-.15-6.77a.5.5 0 0 1 .06-.24l.11-.08H13.35a.35.35 0 0 1 .26.1.41.41 0 0 1 .08.24ZM7.65 14.32a.27.27 0 0 1 0 .12.26.26 0 0 1-.07.11l-.1.07H5.43a.25.25 0 0 1-.12 0 .27.27 0 0 1-.1-.08.31.31 0 0 1-.09-.22v-1.83a.36.36 0 0 1 .09-.23l.1-.07h2.01a.32.32 0 0 1 .23.09.3.3 0 0 1 .07.1.28.28 0 0 1 0 .13Zm2.2-7.17a3.1 3.1 0 0 1-.36.73 5.58 5.58 0 0 1-.49.6 4.85 4.85 0 0 1-.52.52 8 8 0 0 0-.65.63 1 1 0 0 0-.27.7v.22a.21.21 0 0 1 0 .12.17.17 0 0 1-.06.1.23.23 0 0 1-.1.07H5.53a.21.21 0 0 1-.12 0 .18.18 0 0 1-.1-.07.2.2 0 0 1-.08-.1.37.37 0 0 1 0-.12v-.35a2.68 2.68 0 0 1 .13-.84 2.91 2.91 0 0 1 .33-.66 3.38 3.38 0 0 1 .45-.55c.16-.15.33-.29.49-.42a7.84 7.84 0 0 0 .65-.64 1 1 0 0 0 .25-.67.77.77 0 0 0-.07-.34.67.67 0 0 0-.23-.27 1.16 1.16 0 0 0-.72-.24 1.61 1.61 0 0 0-.51.04 3 3 0 0 0-.41.18A1.75 1.75 0 0 0 5.3 6l-.11.09a.5.5 0 0 1-.19.03.31.31 0 0 1-.26-.12l-1-1.21a.3.3 0 0 1 0-.4A1.36 1.36 0 0 1 4 4.18a3.07 3.07 0 0 1 .56-.38 5.49 5.49 0 0 1 .9-.37 3.69 3.69 0 0 1 1.19-.17A3.92 3.92 0 0 1 8.93 4a2.85 2.85 0 0 1 .77.92 2.82 2.82 0 0 1 .3 1.29 3 3 0 0 1-.15.94Z" class="icon-component"/></g></svg>