<svg xmlns="http://www.w3.org/2000/svg" width="12" height="12" viewBox="0 0 18 19"><path d="M9 .5a9 9 0 1 0 9 9 9 9 0 0 0-9-9Z" class="icon-shadow" opacity=".3"/><path fill="#e58f2a" d="M9 0a9 9 0 1 0 9 9 9 9 0 0 0-9-9Z" class="icon-background"/><path d="M9.92 15a.27.27 0 0 1 0 .12.41.41 0 0 1-.07.11.32.32 0 0 1-.23.09H7.7a.25.25 0 0 1-.12 0 .27.27 0 0 1-.1-.08.31.31 0 0 1-.09-.24v-1.81a.32.32 0 0 1 .09-.19l.1-.07h2.01a.32.32 0 0 1 .23.09.61.61 0 0 1 .07.1.28.28 0 0 1 0 .13Zm2.2-7.17a3.1 3.1 0 0 1-.36.73 5.58 5.58 0 0 1-.49.6 6 6 0 0 1-.52.49 8 8 0 0 0-.65.63 1 1 0 0 0-.27.7v.22a.24.24 0 0 1 0 .12.17.17 0 0 1-.06.1.3.3 0 0 1-.1.07h-2a.3.3 0 0 1-.1-.07.26.26 0 0 1-.07-.1.37.37 0 0 1 0-.12v-.35a2.42 2.42 0 0 1 .11-.85 2.55 2.55 0 0 1 .33-.66 3.38 3.38 0 0 1 .45-.55c.16-.15.33-.29.49-.42a7.73 7.73 0 0 0 .64-.64 1 1 0 0 0 .26-.67.77.77 0 0 0-.07-.34.75.75 0 0 0-.23-.27 1.16 1.16 0 0 0-.72-.24 1.61 1.61 0 0 0-.49.07 3 3 0 0 0-.41.18 1.41 1.41 0 0 0-.29.18l-.11.09a.5.5 0 0 1-.24.06.31.31 0 0 1-.22-.1L6 5.48a.29.29 0 0 1 0-.4 1.36 1.36 0 0 1 .21-.2 3.07 3.07 0 0 1 .56-.38 5.38 5.38 0 0 1 .89-.37A3.75 3.75 0 0 1 8.9 4a4.07 4.07 0 0 1 1.2.19 4 4 0 0 1 1.09.56 2.76 2.76 0 0 1 .78.92 2.82 2.82 0 0 1 .28 1.28 3 3 0 0 1-.13.9Z" class="icon-component-shadow" opacity=".2"/><path fill="#fff" d="M9.92 14.52a.27.27 0 0 1 0 .12.41.41 0 0 1-.07.11.32.32 0 0 1-.23.09H7.7a.25.25 0 0 1-.12 0 .27.27 0 0 1-.1-.08.31.31 0 0 1-.09-.22v-1.85a.32.32 0 0 1 .09-.23l.1-.07h2.01a.32.32 0 0 1 .23.09.61.61 0 0 1 .07.1.28.28 0 0 1 0 .13Zm2.2-7.17a3.1 3.1 0 0 1-.36.73 5.58 5.58 0 0 1-.49.6 6 6 0 0 1-.52.49 8 8 0 0 0-.65.63 1 1 0 0 0-.27.7v.22a.24.24 0 0 1 0 .12.17.17 0 0 1-.06.1.3.3 0 0 1-.1.07h-2a.3.3 0 0 1-.1-.07.26.26 0 0 1-.07-.1.37.37 0 0 1 0-.12v-.35a2.42 2.42 0 0 1 .13-.84 2.55 2.55 0 0 1 .33-.66 3.38 3.38 0 0 1 .45-.55c.16-.15.33-.29.49-.42a7.73 7.73 0 0 0 .64-.64 1 1 0 0 0 .26-.67.77.77 0 0 0-.07-.34.75.75 0 0 0-.25-.25 1.16 1.16 0 0 0-.72-.24 1.61 1.61 0 0 0-.49.07 3 3 0 0 0-.41.17 1.41 1.41 0 0 0-.29.18l-.11.09a.5.5 0 0 1-.24.06.31.31 0 0 1-.22-.14L6 5a.29.29 0 0 1 0-.4 1.36 1.36 0 0 1 .21-.2 3.07 3.07 0 0 1 .6-.4 5.38 5.38 0 0 1 .89-.37 3.75 3.75 0 0 1 1.2-.17 4.07 4.07 0 0 1 1.2.19 4 4 0 0 1 1.09.56 2.76 2.76 0 0 1 .78.92 2.82 2.82 0 0 1 .28 1.28 3 3 0 0 1-.13.94Z" class="icon-component"/></svg>